<svg version="1" xmlns="http://www.w3.org/2000/svg" width="2845.333" height="2845.333" viewBox="0 0 2134.000000 2134.000000"><path d="M589.2 219.6c-21.4 3.3-40 15-52 32.9-2.2 3.3-4.8 7.8-5.7 10-1 2.2-2.2 4.9-2.7 6-.5 1.1-1.7 5.4-2.8 9.5-1.9 7.4-1.9 22.8-1.9 807.5-.1 702.4.1 800.9 1.4 807 5.7 26.9 24.3 48 51 57.6 8.5 3 9.8 3.2 23 3.3 12.1.1 15.7-.3 21-1.8.6-.2 2.4-.6 4-1.1 5.9-1.6 17.7-7.7 23.3-12.2 17.1-13.6 26.9-30.6 29.8-51.8.4-2.8.7-344.4.7-759.3 0-691.2.1-754.2 1.6-754.3 11.4-.3 442.3.1 446.6.5 3.3.3 9.4.8 13.5 1.1 6.8.5 22.1 2.4 32.5 4 3.3.6 23.2 4.5 29.7 6 9.3 2.1 41.9 11.9 44.3 13.3.6.4 1.5.7 2 .8 5.8 1.1 47.3 20 61.6 28.2 7.7 4.3 19.8 11.8 27.7 17.1 4.6 3.1 9.1 6 10 6.6 1 .5 1.9 1.2 2.2 1.5.3.3 4.8 3.8 10.1 7.8 23 17.3 49.7 42.5 67.4 63.7 2.7 3.3 5.2 6.2 5.6 6.5.3.3 2.1 2.6 4 5.1 1.9 2.5 6.1 8.1 9.3 12.5 17.9 23.7 39.7 62.3 49.8 87.9 1.1 2.7 2.6 6.3 3.3 8 4 9.1 12.8 36.6 16.9 53 3.5 14.3 5.4 23.8 7.6 38.9 4 27.7 4.5 34.5 4.5 64.1 0 25.7-.6 37.3-3 54.5-1.4 10.2-1.8 12.7-2.1 14.5-.2 1.1-.8 4.6-1.4 7.7-.6 3.2-1.2 6.8-1.4 8-3.2 17.6-16.8 64.2-19.7 67.3-.5.5-.9 1.5-.9 2.3 0 3.5-19.5 44.8-27.7 58.7-15.9 26.8-33.2 50.6-53.2 73-5.5 6.2-28.1 28.6-34.2 34-44.3 39.2-99.6 70.4-155.9 87.8-13.8 4.3-31.4 8.9-39 10.2-1.9.3-4.2.8-5 1-.8.2-3.1.7-5 1-1.9.3-4.6.8-6 1-1.4.3-3.4.7-4.5.9-1.8.3-10.4 1.4-16.5 2.1-1.4.1-4.3.5-6.5.8-6.7 1-20.2 1.8-36.7 2.2-18.1.5-21.5.9-30.6 3.7-12.8 3.9-21.9 9.5-32.1 19.7-14.5 14.5-22 33.1-21.9 54.4.1 36.6 25.4 67.3 61.8 75.2 4.9 1 12.1 1.3 29 .9 12.4-.2 24.1-.6 26-.8 1.9-.2 7.3-.7 12-1.1 4.7-.3 9.9-.8 11.5-1 1.7-.2 5-.6 7.5-.9 13.2-1.6 25.1-3.3 28-4.1.8-.2 3.8-.7 6.5-1.1 2.8-.3 5.3-.8 5.6-1 .4-.2 2.4-.6 4.5-1 2.2-.3 10.4-2.2 18.4-4.1 8-1.9 15.2-3.6 16-3.8.8-.2 8.3-2.4 16.5-4.9 58.1-17.5 110-42.1 160-76.1 31.2-21.1 54.8-40.7 83.1-69 22.2-22.2 29.7-30.5 45.9-50.8 11.3-14.2 12.5-15.8 24.8-33.7 32.9-47.9 59.3-102.9 76.1-159 3.9-13 10.6-38.7 12-46 .2-1.4 1.4-7.2 2.5-13s2.3-12.3 2.6-14.5c.2-2.2.7-5.1 1-6.5.3-1.4.7-4.5 1-7 .3-2.5.7-5.6 1-7 1.2-6.7 2-16 3-31.5.4-6.1.9-12.6 1.1-14.5.4-4.2.4-53.8-.1-59.5-.1-2.2-.6-7.8-.9-12.5-1.1-14.3-1.8-21.1-4.2-39-1.5-11.6-7.4-41.9-11-56.5-15.2-61.8-42.1-124.1-76.3-176.5-6.1-9.4-22-32.2-23-33-.3-.3-2.6-3.2-5-6.5-5-6.7-22.1-27.3-29.1-35-7.8-8.6-36.2-36.7-43.5-43.1-9.7-8.5-21.5-18.4-25.4-21.4-1.8-1.4-3.8-3-4.4-3.5-.7-.6-5.5-4.2-10.7-8.1-62.3-46.2-131.8-79.1-206.5-97.8-5.5-1.4-11.1-2.7-12.5-3-1.4-.2-4.7-1-7.5-1.6-4.8-1.1-6.3-1.4-12.2-2.5-1.6-.3-5.3-.9-8.3-1.5-6.7-1.1-10.1-1.7-16-2.5-2.5-.3-5.6-.8-7-1-1.4-.2-5.4-.7-9-1-3.6-.4-7.2-.8-8-1-.9-.2-6.1-.6-11.5-1-5.5-.4-11.6-.9-13.5-1.1-1.9-.3-124.2-.6-271.8-.7-199.8-.2-270.2.1-276 .9z"/></svg>
